<mxfile host="app.diagrams.net" agent="Mozilla/5.0 (Windows NT 10.0; Win64; x64) AppleWebKit/537.36 (KHTML, like Gecko) Chrome/130.0.0.0 Safari/537.36 Edg/130.0.0.0" version="24.7.17">
  <diagram name="Page-1" id="2YBvvXClWsGukQMizWep">
    <mxGraphModel dx="1186" dy="751" grid="1" gridSize="10" guides="1" tooltips="1" connect="1" arrows="1" fold="1" page="1" pageScale="1" pageWidth="850" pageHeight="1100" math="0" shadow="0">
      <root>
        <mxCell id="0" />
        <mxCell id="1" parent="0" />
        <mxCell id="68Vzs3jeyPeb8RPkbG5e-36" value="" style="whiteSpace=wrap;html=1;aspect=fixed;" parent="1" vertex="1">
          <mxGeometry x="215" y="1440" width="630" height="630" as="geometry" />
        </mxCell>
        <mxCell id="lrXMMNrvf5HKtLK1S61r-70" value="" style="whiteSpace=wrap;html=1;aspect=fixed;" parent="1" vertex="1">
          <mxGeometry x="220" y="750" width="630" height="630" as="geometry" />
        </mxCell>
        <mxCell id="q4rwjHRaE9q65FAMRLbH-2" value="" style="ellipse;whiteSpace=wrap;html=1;align=center;aspect=fixed;fillColor=none;strokeColor=none;resizable=0;perimeter=centerPerimeter;rotatable=0;allowArrows=0;points=[];outlineConnect=1;" parent="1" vertex="1">
          <mxGeometry x="450" y="500" width="10" height="10" as="geometry" />
        </mxCell>
        <mxCell id="lrXMMNrvf5HKtLK1S61r-2" value="" style="whiteSpace=wrap;html=1;aspect=fixed;" parent="1" vertex="1">
          <mxGeometry x="220" y="90" width="620" height="620" as="geometry" />
        </mxCell>
        <mxCell id="lrXMMNrvf5HKtLK1S61r-3" value="Tickets Olympiques" style="text;html=1;align=center;verticalAlign=middle;whiteSpace=wrap;rounded=0;glass=0;" parent="1" vertex="1">
          <mxGeometry x="370" y="90" width="290" height="30" as="geometry" />
        </mxCell>
        <mxCell id="lrXMMNrvf5HKtLK1S61r-6" value="&lt;p style=&quot;text-indent:18.0pt&quot; class=&quot;MsoNormal&quot;&gt;&lt;span style=&quot;&quot;&gt;&lt;font style=&quot;font-size: 11px;&quot;&gt;Se connecter&lt;/font&gt;&lt;/span&gt;&lt;/p&gt;" style="ellipse;whiteSpace=wrap;html=1;" parent="1" vertex="1">
          <mxGeometry x="290" y="150" width="150" height="70" as="geometry" />
        </mxCell>
        <mxCell id="lrXMMNrvf5HKtLK1S61r-7" value="&lt;p style=&quot;text-indent:18.0pt&quot; class=&quot;MsoNormal&quot;&gt;&lt;span style=&quot;&quot;&gt;&lt;font style=&quot;font-size: 11px;&quot;&gt;Créer un compte&lt;/font&gt;&lt;/span&gt;&lt;/p&gt;" style="ellipse;whiteSpace=wrap;html=1;" parent="1" vertex="1">
          <mxGeometry x="270" y="295" width="180" height="80" as="geometry" />
        </mxCell>
        <mxCell id="lrXMMNrvf5HKtLK1S61r-10" value="&lt;p style=&quot;text-indent:18.0pt&quot; class=&quot;MsoNormal&quot;&gt;&lt;span style=&quot;font-size:11.0pt;&lt;br/&gt;font-family:&amp;quot;Calibri&amp;quot;,&amp;quot;sans-serif&amp;quot;&quot;&gt;Utilisateur&lt;/span&gt;&lt;/p&gt;" style="shape=umlActor;verticalLabelPosition=bottom;verticalAlign=top;html=1;outlineConnect=0;" parent="1" vertex="1">
          <mxGeometry x="80" y="270" width="30" height="60" as="geometry" />
        </mxCell>
        <mxCell id="lrXMMNrvf5HKtLK1S61r-12" value="&lt;p style=&quot;text-indent:18.0pt&quot; class=&quot;MsoNormal&quot;&gt;&lt;span style=&quot;&quot;&gt;&lt;font style=&quot;font-size: 11px;&quot;&gt;Se déconnecter&lt;/font&gt;&lt;/span&gt;&lt;/p&gt;" style="ellipse;whiteSpace=wrap;html=1;align=left;" parent="1" vertex="1">
          <mxGeometry x="620" y="110" width="150" height="70" as="geometry" />
        </mxCell>
        <mxCell id="lrXMMNrvf5HKtLK1S61r-16" value="" style="endArrow=classic;html=1;rounded=0;" parent="1" edge="1">
          <mxGeometry width="50" height="50" relative="1" as="geometry">
            <mxPoint x="120" y="300" as="sourcePoint" />
            <mxPoint x="290" y="200" as="targetPoint" />
          </mxGeometry>
        </mxCell>
        <mxCell id="lrXMMNrvf5HKtLK1S61r-17" value="" style="endArrow=classic;html=1;rounded=0;entryX=0;entryY=0.5;entryDx=0;entryDy=0;" parent="1" target="lrXMMNrvf5HKtLK1S61r-7" edge="1">
          <mxGeometry width="50" height="50" relative="1" as="geometry">
            <mxPoint x="120" y="300" as="sourcePoint" />
            <mxPoint x="370" y="440" as="targetPoint" />
          </mxGeometry>
        </mxCell>
        <mxCell id="lrXMMNrvf5HKtLK1S61r-20" value="&lt;p style=&quot;text-indent:18.0pt&quot; class=&quot;MsoNormal&quot;&gt;&lt;span style=&quot;&quot;&gt;&lt;font style=&quot;font-size: 10px;&quot;&gt;Réservation des tickets&lt;/font&gt;&lt;/span&gt;&lt;/p&gt;" style="ellipse;whiteSpace=wrap;html=1;align=center;" parent="1" vertex="1">
          <mxGeometry x="660" y="380" width="150" height="70" as="geometry" />
        </mxCell>
        <mxCell id="lrXMMNrvf5HKtLK1S61r-24" value="&lt;p style=&quot;text-indent:18.0pt&quot; class=&quot;MsoNormal&quot;&gt;&lt;span style=&quot;&quot;&gt;&lt;font style=&quot;font-size: 11px;&quot;&gt;Page d’accueil&lt;/font&gt;&lt;/span&gt;&lt;/p&gt;" style="ellipse;whiteSpace=wrap;html=1;" parent="1" vertex="1">
          <mxGeometry x="275" y="550" width="180" height="80" as="geometry" />
        </mxCell>
        <mxCell id="lrXMMNrvf5HKtLK1S61r-25" value="" style="endArrow=classic;html=1;rounded=0;entryX=0.026;entryY=0.288;entryDx=0;entryDy=0;entryPerimeter=0;" parent="1" target="lrXMMNrvf5HKtLK1S61r-34" edge="1">
          <mxGeometry width="50" height="50" relative="1" as="geometry">
            <mxPoint x="120" y="300" as="sourcePoint" />
            <mxPoint x="260" y="510" as="targetPoint" />
          </mxGeometry>
        </mxCell>
        <mxCell id="lrXMMNrvf5HKtLK1S61r-27" value="" style="endArrow=classic;html=1;rounded=0;entryX=0.039;entryY=0.25;entryDx=0;entryDy=0;entryPerimeter=0;" parent="1" target="lrXMMNrvf5HKtLK1S61r-24" edge="1">
          <mxGeometry width="50" height="50" relative="1" as="geometry">
            <mxPoint x="120" y="300" as="sourcePoint" />
            <mxPoint x="330" y="520" as="targetPoint" />
          </mxGeometry>
        </mxCell>
        <mxCell id="lrXMMNrvf5HKtLK1S61r-30" value="&lt;p style=&quot;text-indent:18.0pt&quot; class=&quot;MsoNormal&quot;&gt;&lt;span style=&quot;&quot;&gt;&lt;font style=&quot;font-size: 11px;&quot;&gt;Paiement&lt;/font&gt;&lt;/span&gt;&lt;/p&gt;" style="ellipse;whiteSpace=wrap;html=1;align=center;" parent="1" vertex="1">
          <mxGeometry x="670" y="480" width="130" height="70" as="geometry" />
        </mxCell>
        <mxCell id="lrXMMNrvf5HKtLK1S61r-34" value="&lt;span style=&quot;font-family: Calibri, &amp;quot;sans-serif&amp;quot;; text-align: left; text-indent: -24px;&quot;&gt;&lt;font style=&quot;font-size: 11px;&quot;&gt;Affichage et recherche des événements disponibles&lt;/font&gt;&lt;/span&gt;" style="ellipse;whiteSpace=wrap;html=1;" parent="1" vertex="1">
          <mxGeometry x="265" y="420" width="190" height="80" as="geometry" />
        </mxCell>
        <mxCell id="lrXMMNrvf5HKtLK1S61r-37" value="" style="endArrow=classic;html=1;rounded=0;" parent="1" edge="1">
          <mxGeometry width="50" height="50" relative="1" as="geometry">
            <mxPoint x="730" y="450" as="sourcePoint" />
            <mxPoint x="729.5" y="480" as="targetPoint" />
          </mxGeometry>
        </mxCell>
        <mxCell id="lrXMMNrvf5HKtLK1S61r-40" value="&lt;p style=&quot;margin-bottom: 10pt; line-height: 115%; font-size: 11px;&quot; class=&quot;MsoListParagraph&quot;&gt;&lt;span style=&quot;line-height: 115%; font-family: Calibri, &amp;quot;sans-serif&amp;quot;;&quot;&gt;&lt;font style=&quot;font-size: 11px;&quot;&gt;Téléchargement et&lt;/font&gt;&lt;/span&gt;&lt;/p&gt;&lt;p style=&quot;margin-bottom: 10pt; line-height: 115%; font-size: 11px;&quot; class=&quot;MsoListParagraph&quot;&gt;&lt;span style=&quot;line-height: 115%; font-family: Calibri, &amp;quot;sans-serif&amp;quot;;&quot;&gt;&lt;font style=&quot;font-size: 11px;&quot;&gt; Impression des billets&lt;/font&gt;&lt;/span&gt;&lt;span style=&quot;font-size: 11pt; line-height: 115%; font-family: Calibri, &amp;quot;sans-serif&amp;quot;;&quot;&gt; &lt;/span&gt;&lt;/p&gt;" style="ellipse;whiteSpace=wrap;html=1;align=center;" parent="1" vertex="1">
          <mxGeometry x="620" y="190" width="210" height="70" as="geometry" />
        </mxCell>
        <mxCell id="lrXMMNrvf5HKtLK1S61r-44" value="&lt;p style=&quot;text-indent:18.0pt&quot; class=&quot;MsoNormal&quot;&gt;&lt;span style=&quot;&quot;&gt;&lt;font style=&quot;font-size: 11px;&quot;&gt;Gestion Profil&lt;/font&gt;&lt;/span&gt;&lt;/p&gt;" style="ellipse;whiteSpace=wrap;html=1;align=center;" parent="1" vertex="1">
          <mxGeometry x="670" y="630" width="130" height="70" as="geometry" />
        </mxCell>
        <mxCell id="lrXMMNrvf5HKtLK1S61r-45" value="" style="ellipse;whiteSpace=wrap;html=1;align=center;aspect=fixed;fillColor=none;strokeColor=none;resizable=0;perimeter=centerPerimeter;rotatable=0;allowArrows=0;points=[];outlineConnect=1;" parent="1" vertex="1">
          <mxGeometry x="470" y="1130" width="10" height="10" as="geometry" />
        </mxCell>
        <mxCell id="lrXMMNrvf5HKtLK1S61r-46" value="Tickets Olympiques" style="text;html=1;align=center;verticalAlign=middle;whiteSpace=wrap;rounded=0;glass=0;" parent="1" vertex="1">
          <mxGeometry x="385" y="750" width="290" height="30" as="geometry" />
        </mxCell>
        <mxCell id="lrXMMNrvf5HKtLK1S61r-47" value="&lt;p style=&quot;text-indent:18.0pt&quot; class=&quot;MsoNormal&quot;&gt;&lt;span style=&quot;&quot;&gt;&lt;font style=&quot;font-size: 11px;&quot;&gt;Se connecter&lt;/font&gt;&lt;/span&gt;&lt;/p&gt;" style="ellipse;whiteSpace=wrap;html=1;" parent="1" vertex="1">
          <mxGeometry x="310" y="780" width="150" height="70" as="geometry" />
        </mxCell>
        <mxCell id="lrXMMNrvf5HKtLK1S61r-49" value="&lt;p style=&quot;text-indent:18.0pt&quot; class=&quot;MsoNormal&quot;&gt;&lt;span style=&quot;font-size:11.0pt;&lt;br/&gt;font-family:&amp;quot;Calibri&amp;quot;,&amp;quot;sans-serif&amp;quot;&quot;&gt;Admin&lt;/span&gt;&lt;/p&gt;" style="shape=umlActor;verticalLabelPosition=bottom;verticalAlign=top;html=1;outlineConnect=0;" parent="1" vertex="1">
          <mxGeometry x="90" y="900" width="30" height="60" as="geometry" />
        </mxCell>
        <mxCell id="lrXMMNrvf5HKtLK1S61r-50" value="&lt;p style=&quot;text-indent:18.0pt&quot; class=&quot;MsoNormal&quot;&gt;&lt;span style=&quot;&quot;&gt;&lt;font style=&quot;font-size: 11px;&quot;&gt;Se déconnecter&lt;/font&gt;&lt;/span&gt;&lt;/p&gt;" style="ellipse;whiteSpace=wrap;html=1;align=center;" parent="1" vertex="1">
          <mxGeometry x="650" y="770" width="170" height="60" as="geometry" />
        </mxCell>
        <mxCell id="lrXMMNrvf5HKtLK1S61r-51" value="" style="endArrow=classic;html=1;rounded=0;" parent="1" edge="1">
          <mxGeometry width="50" height="50" relative="1" as="geometry">
            <mxPoint x="140" y="930" as="sourcePoint" />
            <mxPoint x="310" y="830" as="targetPoint" />
          </mxGeometry>
        </mxCell>
        <mxCell id="lrXMMNrvf5HKtLK1S61r-56" value="&lt;p style=&quot;text-indent:18.0pt&quot; class=&quot;MsoNormal&quot;&gt;&lt;span style=&quot;&quot;&gt;&lt;font style=&quot;font-size: 11px;&quot;&gt;Page d’accueil&lt;/font&gt;&lt;/span&gt;&lt;/p&gt;" style="ellipse;whiteSpace=wrap;html=1;" parent="1" vertex="1">
          <mxGeometry x="295" y="1180" width="180" height="80" as="geometry" />
        </mxCell>
        <mxCell id="lrXMMNrvf5HKtLK1S61r-57" value="" style="endArrow=classic;html=1;rounded=0;entryX=0.026;entryY=0.338;entryDx=0;entryDy=0;entryPerimeter=0;" parent="1" target="lrXMMNrvf5HKtLK1S61r-60" edge="1">
          <mxGeometry width="50" height="50" relative="1" as="geometry">
            <mxPoint x="140" y="930" as="sourcePoint" />
            <mxPoint x="280" y="1140" as="targetPoint" />
          </mxGeometry>
        </mxCell>
        <mxCell id="lrXMMNrvf5HKtLK1S61r-58" value="" style="endArrow=classic;html=1;rounded=0;entryX=0;entryY=0;entryDx=0;entryDy=0;" parent="1" target="lrXMMNrvf5HKtLK1S61r-56" edge="1">
          <mxGeometry width="50" height="50" relative="1" as="geometry">
            <mxPoint x="140" y="930" as="sourcePoint" />
            <mxPoint x="350" y="1150" as="targetPoint" />
          </mxGeometry>
        </mxCell>
        <mxCell id="lrXMMNrvf5HKtLK1S61r-60" value="&lt;span style=&quot;font-family: Calibri, &amp;quot;sans-serif&amp;quot;; text-align: left; text-indent: -24px;&quot;&gt;&lt;font style=&quot;font-size: 11px;&quot;&gt;Affichage et recherche des événements disponibles&lt;/font&gt;&lt;/span&gt;" style="ellipse;whiteSpace=wrap;html=1;" parent="1" vertex="1">
          <mxGeometry x="285" y="1000" width="190" height="80" as="geometry" />
        </mxCell>
        <mxCell id="lrXMMNrvf5HKtLK1S61r-63" value="&lt;p style=&quot;margin-bottom: 10pt; line-height: 115%; font-size: 11px;&quot; class=&quot;MsoListParagraph&quot;&gt;&lt;font face=&quot;Calibri, sans-serif&quot;&gt;Gestion des permissions utilisateurs&lt;/font&gt;&lt;/p&gt;" style="ellipse;whiteSpace=wrap;html=1;align=center;" parent="1" vertex="1">
          <mxGeometry x="630" y="840" width="210" height="70" as="geometry" />
        </mxCell>
        <mxCell id="lrXMMNrvf5HKtLK1S61r-71" value="&lt;p style=&quot;text-indent:18.0pt&quot; class=&quot;MsoNormal&quot;&gt;&lt;span style=&quot;font-family: Calibri, &amp;quot;sans-serif&amp;quot;;&quot;&gt;&lt;font style=&quot;font-size: 11px;&quot;&gt;Analyse des données: stat des évènements et réservations (Exemple : nombre de vente par offre)&lt;/font&gt;&lt;/span&gt;&lt;br&gt;&lt;/p&gt;" style="ellipse;whiteSpace=wrap;html=1;align=center;" parent="1" vertex="1">
          <mxGeometry x="635" y="1180" width="205" height="110" as="geometry" />
        </mxCell>
        <mxCell id="lrXMMNrvf5HKtLK1S61r-73" value="&lt;p style=&quot;text-indent:18.0pt&quot; class=&quot;MsoNormal&quot;&gt;&lt;font face=&quot;Calibri, sans-serif&quot;&gt;&lt;span style=&quot;font-size: 11px;&quot;&gt;Optimisation des stratégies de marketing&lt;/span&gt;&lt;/font&gt;&lt;/p&gt;" style="ellipse;whiteSpace=wrap;html=1;align=center;" parent="1" vertex="1">
          <mxGeometry x="595" y="1290" width="235" height="80" as="geometry" />
        </mxCell>
        <mxCell id="68Vzs3jeyPeb8RPkbG5e-2" value="&lt;p style=&quot;margin-bottom: 10pt; line-height: 115%; font-size: 11px;&quot; class=&quot;MsoListParagraph&quot;&gt;&lt;font face=&quot;Calibri, sans-serif&quot;&gt;Historique des réservations&lt;/font&gt;&lt;/p&gt;" style="ellipse;whiteSpace=wrap;html=1;align=center;" parent="1" vertex="1">
          <mxGeometry x="620" y="280" width="210" height="70" as="geometry" />
        </mxCell>
        <mxCell id="68Vzs3jeyPeb8RPkbG5e-5" value="&lt;p style=&quot;text-indent:18.0pt&quot; class=&quot;MsoNormal&quot;&gt;&lt;span style=&quot;&quot;&gt;&lt;font style=&quot;font-size: 11px;&quot;&gt;Initialiser le mot de passe&lt;/font&gt;&lt;/span&gt;&lt;/p&gt;" style="ellipse;whiteSpace=wrap;html=1;align=center;" parent="1" vertex="1">
          <mxGeometry x="670" y="555" width="130" height="70" as="geometry" />
        </mxCell>
        <mxCell id="68Vzs3jeyPeb8RPkbG5e-12" value="" style="ellipse;whiteSpace=wrap;html=1;align=center;aspect=fixed;fillColor=none;strokeColor=none;resizable=0;perimeter=centerPerimeter;rotatable=0;allowArrows=0;points=[];outlineConnect=1;" parent="1" vertex="1">
          <mxGeometry x="445" y="1830" width="10" height="10" as="geometry" />
        </mxCell>
        <mxCell id="68Vzs3jeyPeb8RPkbG5e-13" value="Tickets Olympiques" style="text;html=1;align=center;verticalAlign=middle;whiteSpace=wrap;rounded=0;glass=0;" parent="1" vertex="1">
          <mxGeometry x="360" y="1450" width="290" height="30" as="geometry" />
        </mxCell>
        <mxCell id="68Vzs3jeyPeb8RPkbG5e-14" value="&lt;p style=&quot;text-indent:18.0pt&quot; class=&quot;MsoNormal&quot;&gt;&lt;span style=&quot;&quot;&gt;&lt;font style=&quot;font-size: 11px;&quot;&gt;Se connecter&lt;/font&gt;&lt;/span&gt;&lt;/p&gt;" style="ellipse;whiteSpace=wrap;html=1;" parent="1" vertex="1">
          <mxGeometry x="285" y="1480" width="150" height="70" as="geometry" />
        </mxCell>
        <mxCell id="68Vzs3jeyPeb8RPkbG5e-15" value="&lt;p style=&quot;text-indent:18.0pt&quot; class=&quot;MsoNormal&quot;&gt;&lt;span style=&quot;&quot;&gt;&lt;font style=&quot;font-size: 11px;&quot;&gt;Créer un compte&lt;/font&gt;&lt;/span&gt;&lt;/p&gt;" style="ellipse;whiteSpace=wrap;html=1;" parent="1" vertex="1">
          <mxGeometry x="265" y="1625" width="180" height="80" as="geometry" />
        </mxCell>
        <mxCell id="68Vzs3jeyPeb8RPkbG5e-16" value="&lt;p style=&quot;text-indent:18.0pt&quot; class=&quot;MsoNormal&quot;&gt;&lt;span style=&quot;&quot;&gt;&lt;font style=&quot;font-size: 11px;&quot;&gt;Se déconnecter&lt;/font&gt;&lt;/span&gt;&lt;/p&gt;" style="ellipse;whiteSpace=wrap;html=1;align=center;" parent="1" vertex="1">
          <mxGeometry x="625" y="1470" width="170" height="60" as="geometry" />
        </mxCell>
        <mxCell id="68Vzs3jeyPeb8RPkbG5e-17" value="" style="endArrow=classic;html=1;rounded=0;" parent="1" edge="1">
          <mxGeometry width="50" height="50" relative="1" as="geometry">
            <mxPoint x="115" y="1630" as="sourcePoint" />
            <mxPoint x="285" y="1530" as="targetPoint" />
          </mxGeometry>
        </mxCell>
        <mxCell id="68Vzs3jeyPeb8RPkbG5e-18" value="" style="endArrow=classic;html=1;rounded=0;entryX=0;entryY=0.5;entryDx=0;entryDy=0;" parent="1" target="68Vzs3jeyPeb8RPkbG5e-15" edge="1">
          <mxGeometry width="50" height="50" relative="1" as="geometry">
            <mxPoint x="115" y="1630" as="sourcePoint" />
            <mxPoint x="365" y="1770" as="targetPoint" />
          </mxGeometry>
        </mxCell>
        <mxCell id="68Vzs3jeyPeb8RPkbG5e-20" value="&lt;p style=&quot;text-indent:18.0pt&quot; class=&quot;MsoNormal&quot;&gt;&lt;span style=&quot;font-family: Calibri, &amp;quot;sans-serif&amp;quot;;&quot;&gt;&lt;font style=&quot;font-size: 11px;&quot;&gt;Création, modification et suppression des événements&lt;/font&gt;&lt;/span&gt;&lt;br&gt;&lt;/p&gt;" style="ellipse;whiteSpace=wrap;html=1;align=center;" parent="1" vertex="1">
          <mxGeometry x="612.5" y="1790" width="190" height="70" as="geometry" />
        </mxCell>
        <mxCell id="68Vzs3jeyPeb8RPkbG5e-22" value="&lt;p style=&quot;text-indent:18.0pt&quot; class=&quot;MsoNormal&quot;&gt;&lt;span style=&quot;&quot;&gt;&lt;font style=&quot;font-size: 11px;&quot;&gt;Page d’accueil&lt;/font&gt;&lt;/span&gt;&lt;/p&gt;" style="ellipse;whiteSpace=wrap;html=1;" parent="1" vertex="1">
          <mxGeometry x="270" y="1880" width="180" height="80" as="geometry" />
        </mxCell>
        <mxCell id="68Vzs3jeyPeb8RPkbG5e-23" value="" style="endArrow=classic;html=1;rounded=0;entryX=0.026;entryY=0.338;entryDx=0;entryDy=0;entryPerimeter=0;" parent="1" target="68Vzs3jeyPeb8RPkbG5e-25" edge="1">
          <mxGeometry width="50" height="50" relative="1" as="geometry">
            <mxPoint x="115" y="1630" as="sourcePoint" />
            <mxPoint x="255" y="1840" as="targetPoint" />
          </mxGeometry>
        </mxCell>
        <mxCell id="68Vzs3jeyPeb8RPkbG5e-24" value="" style="endArrow=classic;html=1;rounded=0;entryX=0;entryY=0.5;entryDx=0;entryDy=0;" parent="1" target="68Vzs3jeyPeb8RPkbG5e-22" edge="1">
          <mxGeometry width="50" height="50" relative="1" as="geometry">
            <mxPoint x="115" y="1630" as="sourcePoint" />
            <mxPoint x="325" y="1850" as="targetPoint" />
          </mxGeometry>
        </mxCell>
        <mxCell id="68Vzs3jeyPeb8RPkbG5e-25" value="&lt;span style=&quot;font-family: Calibri, &amp;quot;sans-serif&amp;quot;; text-align: left; text-indent: -24px;&quot;&gt;&lt;font style=&quot;font-size: 11px;&quot;&gt;Affichage et recherche des événements disponibles&lt;/font&gt;&lt;/span&gt;" style="ellipse;whiteSpace=wrap;html=1;" parent="1" vertex="1">
          <mxGeometry x="260" y="1750" width="190" height="80" as="geometry" />
        </mxCell>
        <mxCell id="68Vzs3jeyPeb8RPkbG5e-32" value="&lt;p style=&quot;text-indent:18.0pt&quot; class=&quot;MsoNormal&quot;&gt;&lt;span style=&quot;font-family: Calibri, &amp;quot;sans-serif&amp;quot;;&quot;&gt;&lt;font style=&quot;font-size: 11px;&quot;&gt;Gestion des types des tickets&lt;/font&gt;&lt;/span&gt;&lt;br&gt;&lt;/p&gt;" style="ellipse;whiteSpace=wrap;html=1;align=center;" parent="1" vertex="1">
          <mxGeometry x="640" y="1005" width="190" height="70" as="geometry" />
        </mxCell>
        <mxCell id="68Vzs3jeyPeb8RPkbG5e-37" value="&lt;p style=&quot;text-indent:18.0pt&quot; class=&quot;MsoNormal&quot;&gt;&lt;span style=&quot;font-size:11.0pt;&lt;br/&gt;font-family:&amp;quot;Calibri&amp;quot;,&amp;quot;sans-serif&amp;quot;&quot;&gt;Organisateur&lt;/span&gt;&lt;/p&gt;" style="shape=umlActor;verticalLabelPosition=bottom;verticalAlign=top;html=1;outlineConnect=0;" parent="1" vertex="1">
          <mxGeometry x="60" y="1590" width="30" height="60" as="geometry" />
        </mxCell>
        <mxCell id="68Vzs3jeyPeb8RPkbG5e-40" value="&lt;p style=&quot;margin-bottom: 10pt; line-height: 115%; font-size: 11px;&quot; class=&quot;MsoListParagraph&quot;&gt;&lt;font face=&quot;Calibri, sans-serif&quot;&gt;Visualisation et gestion des comptes utilisateurs&lt;/font&gt;&lt;/p&gt;" style="ellipse;whiteSpace=wrap;html=1;align=center;" parent="1" vertex="1">
          <mxGeometry x="630" y="920" width="210" height="70" as="geometry" />
        </mxCell>
        <mxCell id="68Vzs3jeyPeb8RPkbG5e-42" value="&lt;p style=&quot;text-indent:18.0pt&quot; class=&quot;MsoNormal&quot;&gt;&lt;span style=&quot;font-family: Calibri, &amp;quot;sans-serif&amp;quot;;&quot;&gt;&lt;font style=&quot;font-size: 11px;&quot;&gt;Suivi des réservations&lt;/font&gt;&lt;/span&gt;&lt;br&gt;&lt;/p&gt;" style="ellipse;whiteSpace=wrap;html=1;align=center;" parent="1" vertex="1">
          <mxGeometry x="640" y="1090" width="190" height="70" as="geometry" />
        </mxCell>
        <mxCell id="68Vzs3jeyPeb8RPkbG5e-44" value="&lt;p style=&quot;text-indent:18.0pt&quot; class=&quot;MsoNormal&quot;&gt;&lt;span style=&quot;font-family: Calibri, &amp;quot;sans-serif&amp;quot;;&quot;&gt;&lt;font style=&quot;font-size: 11px;&quot;&gt;Création, modification et suppression des types des tickets&lt;/font&gt;&lt;/span&gt;&lt;br&gt;&lt;/p&gt;" style="ellipse;whiteSpace=wrap;html=1;align=center;" parent="1" vertex="1">
          <mxGeometry x="610" y="1590" width="190" height="70" as="geometry" />
        </mxCell>
        <mxCell id="68Vzs3jeyPeb8RPkbG5e-45" value="&lt;p style=&quot;text-indent:18.0pt&quot; class=&quot;MsoNormal&quot;&gt;&lt;span style=&quot;font-family: Calibri, &amp;quot;sans-serif&amp;quot;;&quot;&gt;&lt;font style=&quot;font-size: 11px;&quot;&gt;Gestion des catégories d&#39;évènement&lt;/font&gt;&lt;/span&gt;&lt;br&gt;&lt;/p&gt;" style="ellipse;whiteSpace=wrap;html=1;align=center;" parent="1" vertex="1">
          <mxGeometry x="612.5" y="1690" width="200" height="70" as="geometry" />
        </mxCell>
        <mxCell id="68Vzs3jeyPeb8RPkbG5e-47" value="&lt;p style=&quot;text-indent:18.0pt&quot; class=&quot;MsoNormal&quot;&gt;&lt;span style=&quot;font-family: Calibri, &amp;quot;sans-serif&amp;quot;;&quot;&gt;&lt;font style=&quot;font-size: 11px;&quot;&gt;Gestion des promotions&lt;/font&gt;&lt;/span&gt;&lt;br&gt;&lt;/p&gt;" style="ellipse;whiteSpace=wrap;html=1;align=center;" parent="1" vertex="1">
          <mxGeometry x="617.5" y="1870" width="190" height="70" as="geometry" />
        </mxCell>
        <mxCell id="68Vzs3jeyPeb8RPkbG5e-49" value="&lt;p style=&quot;text-indent:18.0pt&quot; class=&quot;MsoNormal&quot;&gt;&lt;span style=&quot;font-family: Calibri, &amp;quot;sans-serif&amp;quot;;&quot;&gt;&lt;font style=&quot;font-size: 11px;&quot;&gt;Suivi des ventes pour son évènement&lt;/font&gt;&lt;/span&gt;&lt;br&gt;&lt;/p&gt;" style="ellipse;whiteSpace=wrap;html=1;align=center;" parent="1" vertex="1">
          <mxGeometry x="615" y="1950" width="190" height="70" as="geometry" />
        </mxCell>
        <mxCell id="QKRNH2-sJv9m3tNsCIq3-1" value="" style="endArrow=classic;html=1;rounded=0;" parent="1" edge="1">
          <mxGeometry width="50" height="50" relative="1" as="geometry">
            <mxPoint x="104.5" y="900" as="sourcePoint" />
            <mxPoint x="104.5" y="370" as="targetPoint" />
          </mxGeometry>
        </mxCell>
        <mxCell id="QKRNH2-sJv9m3tNsCIq3-2" value="" style="endArrow=classic;html=1;rounded=0;" parent="1" edge="1">
          <mxGeometry width="50" height="50" relative="1" as="geometry">
            <mxPoint x="80" y="1580" as="sourcePoint" />
            <mxPoint x="90" y="370" as="targetPoint" />
          </mxGeometry>
        </mxCell>
        <mxCell id="QKRNH2-sJv9m3tNsCIq3-4" value="&amp;lt;&amp;lt;Includes" style="endArrow=open;endSize=12;dashed=1;html=1;rounded=0;exitX=0.02;exitY=0.629;exitDx=0;exitDy=0;exitPerimeter=0;entryX=0.927;entryY=0.2;entryDx=0;entryDy=0;entryPerimeter=0;" parent="1" source="lrXMMNrvf5HKtLK1S61r-12" target="lrXMMNrvf5HKtLK1S61r-6" edge="1">
          <mxGeometry width="160" relative="1" as="geometry">
            <mxPoint x="340" y="380" as="sourcePoint" />
            <mxPoint x="500" y="380" as="targetPoint" />
            <mxPoint as="offset" />
          </mxGeometry>
        </mxCell>
        <mxCell id="QKRNH2-sJv9m3tNsCIq3-6" value="&amp;gt;&amp;gt;" style="edgeLabel;html=1;align=center;verticalAlign=middle;resizable=0;points=[];" parent="QKRNH2-sJv9m3tNsCIq3-4" vertex="1" connectable="0">
          <mxGeometry x="-0.3092" y="2" relative="1" as="geometry">
            <mxPoint as="offset" />
          </mxGeometry>
        </mxCell>
        <mxCell id="QKRNH2-sJv9m3tNsCIq3-7" value="&amp;lt;&amp;lt;Includes" style="endArrow=open;endSize=12;dashed=1;html=1;rounded=0;entryX=0.96;entryY=0.371;entryDx=0;entryDy=0;entryPerimeter=0;" parent="1" source="lrXMMNrvf5HKtLK1S61r-40" edge="1">
          <mxGeometry width="160" relative="1" as="geometry">
            <mxPoint x="633" y="164" as="sourcePoint" />
            <mxPoint x="444" y="186" as="targetPoint" />
            <mxPoint as="offset" />
          </mxGeometry>
        </mxCell>
        <mxCell id="QKRNH2-sJv9m3tNsCIq3-9" value="&amp;lt;&amp;lt;Includes" style="endArrow=open;endSize=12;dashed=1;html=1;rounded=0;entryX=0.339;entryY=0.177;entryDx=0;entryDy=0;entryPerimeter=0;exitX=0.095;exitY=0.286;exitDx=0;exitDy=0;exitPerimeter=0;" parent="1" source="68Vzs3jeyPeb8RPkbG5e-2" target="lrXMMNrvf5HKtLK1S61r-2" edge="1">
          <mxGeometry width="160" relative="1" as="geometry">
            <mxPoint x="638" y="222" as="sourcePoint" />
            <mxPoint x="454" y="196" as="targetPoint" />
            <mxPoint as="offset" />
          </mxGeometry>
        </mxCell>
        <mxCell id="QKRNH2-sJv9m3tNsCIq3-10" value="&amp;lt;&amp;lt;Includes" style="endArrow=open;endSize=12;dashed=1;html=1;rounded=0;entryX=0.339;entryY=0.194;entryDx=0;entryDy=0;entryPerimeter=0;exitX=0.067;exitY=0.286;exitDx=0;exitDy=0;exitPerimeter=0;" parent="1" source="lrXMMNrvf5HKtLK1S61r-20" target="lrXMMNrvf5HKtLK1S61r-2" edge="1">
          <mxGeometry width="160" relative="1" as="geometry">
            <mxPoint x="650" y="310" as="sourcePoint" />
            <mxPoint x="464" y="206" as="targetPoint" />
            <mxPoint as="offset" />
          </mxGeometry>
        </mxCell>
        <mxCell id="QKRNH2-sJv9m3tNsCIq3-11" value="&amp;lt;&amp;lt;Includes" style="endArrow=open;endSize=12;dashed=1;html=1;rounded=0;entryX=0.74;entryY=0.914;entryDx=0;entryDy=0;entryPerimeter=0;exitX=0.067;exitY=0.286;exitDx=0;exitDy=0;exitPerimeter=0;" parent="1" target="lrXMMNrvf5HKtLK1S61r-6" edge="1">
          <mxGeometry width="160" relative="1" as="geometry">
            <mxPoint x="686" y="497" as="sourcePoint" />
            <mxPoint x="480" y="303" as="targetPoint" />
            <mxPoint as="offset" />
          </mxGeometry>
        </mxCell>
        <mxCell id="QKRNH2-sJv9m3tNsCIq3-13" value="&amp;lt;&amp;lt;Includes" style="endArrow=open;endSize=12;dashed=1;html=1;rounded=0;entryX=0.74;entryY=0.914;entryDx=0;entryDy=0;entryPerimeter=0;exitX=0;exitY=0;exitDx=0;exitDy=0;" parent="1" source="68Vzs3jeyPeb8RPkbG5e-5" edge="1">
          <mxGeometry width="160" relative="1" as="geometry">
            <mxPoint x="696" y="507" as="sourcePoint" />
            <mxPoint x="411" y="224" as="targetPoint" />
            <mxPoint as="offset" />
          </mxGeometry>
        </mxCell>
        <mxCell id="QKRNH2-sJv9m3tNsCIq3-14" value="&amp;lt;&amp;lt;Includes" style="endArrow=open;endSize=12;dashed=1;html=1;rounded=0;entryX=0.64;entryY=0.957;entryDx=0;entryDy=0;entryPerimeter=0;exitX=0;exitY=0;exitDx=0;exitDy=0;" parent="1" target="lrXMMNrvf5HKtLK1S61r-6" edge="1">
          <mxGeometry width="160" relative="1" as="geometry">
            <mxPoint x="678" y="641" as="sourcePoint" />
            <mxPoint x="400" y="300" as="targetPoint" />
            <mxPoint as="offset" />
          </mxGeometry>
        </mxCell>
        <mxCell id="QKRNH2-sJv9m3tNsCIq3-15" value="&amp;lt;&amp;lt;Includes" style="endArrow=open;endSize=12;dashed=1;html=1;rounded=0;entryX=0.64;entryY=0.971;entryDx=0;entryDy=0;entryPerimeter=0;exitX=0;exitY=0;exitDx=0;exitDy=0;" parent="1" target="lrXMMNrvf5HKtLK1S61r-47" edge="1">
          <mxGeometry width="160" relative="1" as="geometry">
            <mxPoint x="625" y="1304" as="sourcePoint" />
            <mxPoint x="333" y="880" as="targetPoint" />
            <mxPoint as="offset" />
          </mxGeometry>
        </mxCell>
        <mxCell id="QKRNH2-sJv9m3tNsCIq3-16" value="&amp;lt;&amp;lt;Includes" style="endArrow=open;endSize=12;dashed=1;html=1;rounded=0;entryX=1;entryY=1;entryDx=0;entryDy=0;exitX=0;exitY=0;exitDx=0;exitDy=0;" parent="1" target="lrXMMNrvf5HKtLK1S61r-47" edge="1">
          <mxGeometry width="160" relative="1" as="geometry">
            <mxPoint x="644.5" y="1216" as="sourcePoint" />
            <mxPoint x="425.5" y="760" as="targetPoint" />
            <mxPoint as="offset" />
          </mxGeometry>
        </mxCell>
        <mxCell id="QKRNH2-sJv9m3tNsCIq3-17" value="&amp;lt;&amp;lt;Includes" style="endArrow=open;endSize=12;dashed=1;html=1;rounded=0;entryX=0.887;entryY=0.771;entryDx=0;entryDy=0;exitX=0;exitY=0;exitDx=0;exitDy=0;entryPerimeter=0;" parent="1" target="lrXMMNrvf5HKtLK1S61r-47" edge="1">
          <mxGeometry width="160" relative="1" as="geometry">
            <mxPoint x="650" y="1116" as="sourcePoint" />
            <mxPoint x="443.5" y="740" as="targetPoint" />
            <mxPoint as="offset" />
          </mxGeometry>
        </mxCell>
        <mxCell id="QKRNH2-sJv9m3tNsCIq3-18" value="&amp;lt;&amp;lt;Includes" style="endArrow=open;endSize=12;dashed=1;html=1;rounded=0;entryX=0.96;entryY=0.643;entryDx=0;entryDy=0;exitX=0;exitY=0;exitDx=0;exitDy=0;entryPerimeter=0;" parent="1" target="lrXMMNrvf5HKtLK1S61r-47" edge="1">
          <mxGeometry width="160" relative="1" as="geometry">
            <mxPoint x="647" y="1032" as="sourcePoint" />
            <mxPoint x="440" y="750" as="targetPoint" />
            <mxPoint as="offset" />
          </mxGeometry>
        </mxCell>
        <mxCell id="QKRNH2-sJv9m3tNsCIq3-19" value="&amp;lt;&amp;lt;Includes" style="endArrow=open;endSize=12;dashed=1;html=1;rounded=0;exitX=0;exitY=0;exitDx=0;exitDy=0;" parent="1" edge="1">
          <mxGeometry width="160" relative="1" as="geometry">
            <mxPoint x="633" y="947" as="sourcePoint" />
            <mxPoint x="470" y="840" as="targetPoint" />
            <mxPoint as="offset" />
          </mxGeometry>
        </mxCell>
        <mxCell id="QKRNH2-sJv9m3tNsCIq3-20" value="&amp;lt;&amp;lt;Includes" style="endArrow=open;endSize=12;dashed=1;html=1;rounded=0;exitX=0;exitY=0;exitDx=0;exitDy=0;" parent="1" edge="1">
          <mxGeometry width="160" relative="1" as="geometry">
            <mxPoint x="630" y="868.5" as="sourcePoint" />
            <mxPoint x="460" y="830" as="targetPoint" />
            <mxPoint as="offset" />
          </mxGeometry>
        </mxCell>
        <mxCell id="QKRNH2-sJv9m3tNsCIq3-21" value="&amp;lt;&amp;lt;Includes" style="endArrow=open;endSize=12;dashed=1;html=1;rounded=0;exitX=0;exitY=0;exitDx=0;exitDy=0;" parent="1" target="lrXMMNrvf5HKtLK1S61r-47" edge="1">
          <mxGeometry width="160" relative="1" as="geometry">
            <mxPoint x="650" y="798.5" as="sourcePoint" />
            <mxPoint x="480" y="760" as="targetPoint" />
            <mxPoint as="offset" />
          </mxGeometry>
        </mxCell>
        <mxCell id="QKRNH2-sJv9m3tNsCIq3-22" value="&amp;lt;&amp;lt;Includes" style="endArrow=open;endSize=12;dashed=1;html=1;rounded=0;entryX=0.9;entryY=0.857;entryDx=0;entryDy=0;exitX=0;exitY=0;exitDx=0;exitDy=0;entryPerimeter=0;" parent="1" target="68Vzs3jeyPeb8RPkbG5e-14" edge="1">
          <mxGeometry width="160" relative="1" as="geometry">
            <mxPoint x="620" y="1976" as="sourcePoint" />
            <mxPoint x="401" y="1520" as="targetPoint" />
            <mxPoint as="offset" />
          </mxGeometry>
        </mxCell>
        <mxCell id="QKRNH2-sJv9m3tNsCIq3-23" value="&amp;lt;&amp;lt;Includes" style="endArrow=open;endSize=12;dashed=1;html=1;rounded=0;entryX=0.927;entryY=0.743;entryDx=0;entryDy=0;exitX=0;exitY=0;exitDx=0;exitDy=0;entryPerimeter=0;" parent="1" target="68Vzs3jeyPeb8RPkbG5e-14" edge="1">
          <mxGeometry width="160" relative="1" as="geometry">
            <mxPoint x="620" y="1896" as="sourcePoint" />
            <mxPoint x="420" y="1460" as="targetPoint" />
            <mxPoint as="offset" />
          </mxGeometry>
        </mxCell>
        <mxCell id="QKRNH2-sJv9m3tNsCIq3-24" value="&amp;lt;&amp;lt;Includes" style="endArrow=open;endSize=12;dashed=1;html=1;rounded=0;exitX=0;exitY=0;exitDx=0;exitDy=0;" parent="1" edge="1">
          <mxGeometry width="160" relative="1" as="geometry">
            <mxPoint x="615" y="1814" as="sourcePoint" />
            <mxPoint x="430" y="1540" as="targetPoint" />
            <mxPoint as="offset" />
          </mxGeometry>
        </mxCell>
        <mxCell id="QKRNH2-sJv9m3tNsCIq3-25" value="&amp;lt;&amp;lt;Includes" style="endArrow=open;endSize=12;dashed=1;html=1;rounded=0;exitX=0;exitY=0;exitDx=0;exitDy=0;" parent="1" edge="1">
          <mxGeometry width="160" relative="1" as="geometry">
            <mxPoint x="627.5" y="1705" as="sourcePoint" />
            <mxPoint x="440" y="1540" as="targetPoint" />
            <mxPoint as="offset" />
          </mxGeometry>
        </mxCell>
        <mxCell id="QKRNH2-sJv9m3tNsCIq3-26" value="&amp;lt;&amp;lt;Includes" style="endArrow=open;endSize=12;dashed=1;html=1;rounded=0;exitX=0;exitY=0;exitDx=0;exitDy=0;" parent="1" edge="1">
          <mxGeometry width="160" relative="1" as="geometry">
            <mxPoint x="612.5" y="1615" as="sourcePoint" />
            <mxPoint x="440" y="1530" as="targetPoint" />
            <mxPoint as="offset" />
          </mxGeometry>
        </mxCell>
        <mxCell id="QKRNH2-sJv9m3tNsCIq3-27" value="&amp;lt;&amp;lt;Includes" style="endArrow=open;endSize=12;dashed=1;html=1;rounded=0;exitX=0;exitY=0;exitDx=0;exitDy=0;entryX=0.987;entryY=0.629;entryDx=0;entryDy=0;entryPerimeter=0;" parent="1" target="68Vzs3jeyPeb8RPkbG5e-14" edge="1">
          <mxGeometry width="160" relative="1" as="geometry">
            <mxPoint x="635" y="1515" as="sourcePoint" />
            <mxPoint x="462.5" y="1440" as="targetPoint" />
            <mxPoint as="offset" />
          </mxGeometry>
        </mxCell>
      </root>
    </mxGraphModel>
  </diagram>
</mxfile>
